<svg xmlns="http://www.w3.org/2000/svg" xmlns:xlink="http://www.w3.org/1999/xlink" id="Layer_1" width="21" height="21" x="0" y="0" enable-background="new 0 0 21 21" version="1.1" viewBox="0 0 21 21" xml:space="preserve"><path fill="#666" fill-rule="evenodd" d="M10.5,0C16.299,0,21,4.701,21,10.5	C21,16.299,16.299,21,10.5,21S0,16.299,0,10.5C0,4.701,4.701,0,10.5,0z" clip-rule="evenodd" display="none"/><g><path fill="#3787E0" d="M10.5,6.509c-0.372,0-0.678-0.108-0.918-0.324c-0.24-0.216-0.36-0.498-0.36-0.846 c0-0.348,0.12-0.633,0.36-0.855c0.24-0.222,0.546-0.333,0.918-0.333s0.678,0.111,0.918,0.333c0.24,0.222,0.36,0.507,0.36,0.855 c0,0.348-0.12,0.63-0.36,0.846S10.872,6.509,10.5,6.509z M9.456,8.057h2.069v8.837H9.456V8.057z"/></g></svg>