<svg xmlns="http://www.w3.org/2000/svg" xmlns:xlink="http://www.w3.org/1999/xlink" id="Layer_1" width="21" height="21" x="0" y="0" enable-background="new 0 0 21 21" version="1.1" viewBox="0 0 21 21" xml:space="preserve"><path fill="#666" d="M10.5,0C16.299,0,21,4.701,21,10.5S16.299,21,10.5,21S0,16.299,0,10.5S4.701,0,10.5,0z" display="none"/><g><path fill="#3787E0" d="M10.5,7.635c-0.268,0-0.488-0.078-0.661-0.233C9.667,7.246,9.581,7.043,9.581,6.793 c0-0.25,0.086-0.455,0.259-0.615c0.173-0.159,0.393-0.239,0.661-0.239s0.487,0.08,0.66,0.239c0.173,0.16,0.259,0.365,0.259,0.615 c0,0.25-0.086,0.453-0.259,0.609C10.987,7.557,10.768,7.635,10.5,7.635z M9.749,8.749h1.488v6.358H9.749V8.749z"/></g></svg>