<svg xmlns="http://www.w3.org/2000/svg" xmlns:xlink="http://www.w3.org/1999/xlink" id="Layer_1" width="16" height="16" x="0" y="0" enable-background="new 0 0 16 16" version="1.1" viewBox="0 0 16 16" xml:space="preserve"><g><path fill="#205493" fill-rule="evenodd" d="M8,15.505c-4.139,0-7.505-3.367-7.505-7.506 c0-4.138,3.367-7.504,7.505-7.504c4.139,0,7.506,3.366,7.506,7.504C15.506,12.138,12.139,15.505,8,15.505z" clip-rule="evenodd"/><path fill="#FFF" d="M8,0.995c3.864,0,7.006,3.142,7.006,7.004c0,3.863-3.143,7.006-7.006,7.006 c-3.863,0-7.005-3.143-7.005-7.006C0.994,4.137,4.137,0.995,8,0.995 M8-0.005c-4.421,0-8.005,3.584-8.005,8.004 c0,4.422,3.584,8.006,8.005,8.006c4.42,0,8.006-3.584,8.006-8.006C16.006,3.579,12.42-0.005,8-0.005L8-0.005z"/></g><path fill="#FFF" fill-rule="evenodd" d="M8,3.997c2.211,0,4.004,1.792,4.004,4.003	c0,2.211-1.793,4.003-4.004,4.003c-2.211,0-4.003-1.792-4.003-4.003C3.997,5.789,5.789,3.997,8,3.997z" clip-rule="evenodd"/></svg>