<svg xmlns="http://www.w3.org/2000/svg" xmlns:xlink="http://www.w3.org/1999/xlink" id="Layer_1" width="24" height="24" x="0" y="0" enable-background="new 0 0 24 24" version="1.1" viewBox="0 0 24 24" xml:space="preserve"><path id="XMLID_854_" fill="#FFF" d="M23.5,4L0.3,9C0,9.1-0.1,9.5,0.2,9.7l4.5,3.1c0.2,0.1,0.5,0.2,0.7,0.1	l9.9-4.1c0.3-0.1,0.5,0.2,0.2,0.4l-7.2,5.6C8.1,14.9,8,15.1,8,15.4V19c0,0.4,0.4,0.5,0.7,0.3l2.1-2.1l2.2,1.6	c0.3,0.2,0.6,0.2,0.9-0.1L23.9,4.6C24.1,4.3,23.9,3.9,23.5,4z" opacity=".8"/></svg>