<svg xmlns="http://www.w3.org/2000/svg" xmlns:xlink="http://www.w3.org/1999/xlink" id="Layer_1" width="270" height="270" version="1.1"><path fill="#FFF" d="M0 50v100q0 21 14.5 35.5t35.5 14.5h1100q21 0 35.5 -14.5t14.5 -35.5v-100q0 -20 -14.5 -35t-35.5 -15h-1100q-21 0 -35.5 15t-14.5 35zM0 350v100q0 21 14.5 35.5t35.5 14.5h1100q21 0 35.5 -14.5t14.5 -35.5v-100q0 -20 -14.5 -35t-35.5 -15h-1100q-21 0 -35.5 15 t-14.5 35zM0 650v100q0 21 14.5 35.5t35.5 14.5h1100q21 0 35.5 -14.5t14.5 -35.5v-100q0 -20 -14.5 -35t-35.5 -15h-1100q-21 0 -35.5 15t-14.5 35zM0 950v100q0 21 14.5 35.5t35.5 14.5h1100q21 0 35.5 -14.5t14.5 -35.5v-100q0 -20 -14.5 -35t-35.5 -15h-1100 q-21 0 -35.5 15t-14.5 35z" transform="scale(0.1,0.1)"/></svg>