<svg xmlns="http://www.w3.org/2000/svg" xmlns:xlink="http://www.w3.org/1999/xlink" id="Layer_1" width="24" height="24" x="0" y="0" enable-background="new 0 0 24 24" version="1.1" viewBox="0 0 24 24" xml:space="preserve"><g id="XMLID_2874_" opacity=".8"><path id="XMLID_2877_" fill="#666" d="M19.2,1H18v6.5C18,7.8,17.8,8,17.5,8h-11C6.2,8,6,7.8,6,7.5V1H2C1.4,1,1,1.4,1,2v20 c0,0.6,0.4,1,1,1h3v-7.5C5,15.2,5.2,15,5.5,15h13c0.3,0,0.5,0.2,0.5,0.5V23h3c0.6,0,1-0.4,1-1V4.8c0-0.5-0.2-1-0.6-1.4l-1.8-1.8 C20.2,1.2,19.7,1,19.2,1z"/><path fill="#666" d="M16,1.5C16,1.2,15.8,1,15.5,1h-2C13.2,1,13,1.2,13,1.5v4C13,5.8,13.2,6,13.5,6h2C15.8,6,16,5.8,16,5.5V1.5z"/><path fill="#666" d="M15,18.5c0,0.3-0.2,0.5-0.5,0.5h-7C7.2,19,7,18.8,7,18.5v-1C7,17.2,7.2,17,7.5,17h7c0.3,0,0.5,0.2,0.5,0.5 V18.5z"/><path fill="#666" d="M17,22.5c0,0.3-0.2,0.5-0.5,0.5h-9C7.2,23,7,22.8,7,22.5v-1C7,21.2,7.2,21,7.5,21h9c0.3,0,0.5,0.2,0.5,0.5 V22.5z"/></g></svg>